<svg xmlns="http://www.w3.org/2000/svg" xmlns:xlink="http://www.w3.org/1999/xlink" version="1.1" data-diagram-type="DESCRIPTION" style="width:1693px;height:2268px;background:#FFFFFF;" width="1693.75px" height="2268.75px" viewBox="0 0 1693 2268" zoomAndPan="magnify" preserveAspectRatio="none" contentStyleType="text/css"><?plantuml 1.2026.8?><defs/><g font-family="sans-serif" lengthAdjust="spacing"><g class="title" data-source-line="2"><text x="464.148" y="48.191" fill="#000" font-size="29.167" textLength="750.871" font-weight="700" font-family="Arial">Diagramme de cas d'utilisation global — SmartRecruit</text></g><!--cluster Système SmartRecruit--><g class="cluster" data-qualified-name="Syst.me SmartRecruit" id="ent0012" data-source-line="14"><rect x="420.833" y="85.622" width="960.417" height="2133.333" fill="none" style="stroke:#1F3A5F;stroke-width:2.083;" rx="5.208" ry="5.208"/><text x="767.649" y="113.239" fill="#1F3A5F" font-size="25" textLength="266.785" font-weight="700" font-family="Arial">Système SmartRecruit</text></g><!--entity U--><g class="entity" data-qualified-name="U" id="ent0001" data-source-line="4"><ellipse cx="69.792" cy="1771.039" rx="33.333" ry="33.333" fill="#F1F1F1" style="stroke:#181818;stroke-width:1.042;"/><path d="M69.792,1812.705 C78.125,1812.705 84.375,1812.705 92.708,1804.372 C109.375,1804.372 126.042,1821.039 126.042,1837.705 L126.042,1846.039 C126.042,1854.372 117.708,1862.705 109.375,1862.705 L30.208,1862.705 C21.875,1862.705 13.542,1854.372 13.542,1846.039 L13.542,1837.705 C13.542,1821.039 30.208,1804.372 46.875,1804.372 C55.208,1812.705 61.458,1812.705 69.792,1812.705" style="stroke:#181818;stroke-width:1.042;" fill="#F1F1F1"/><text x="14.219" y="1887.197" fill="#000" font-size="25" textLength="111.145" font-family="Arial">Utilisateur</text></g><!--entity C--><g class="entity" data-qualified-name="C" id="ent0002" data-source-line="5"><ellipse cx="284.375" cy="485.622" rx="33.333" ry="33.333" fill="#F1F1F1" style="stroke:#181818;stroke-width:1.042;"/><path d="M284.375,527.289 C292.708,527.289 298.958,527.289 307.292,518.955 C323.958,518.955 340.625,535.622 340.625,552.289 L340.625,560.622 C340.625,568.955 332.292,577.289 323.958,577.289 L244.792,577.289 C236.458,577.289 228.125,568.955 228.125,560.622 L228.125,552.289 C228.125,535.622 244.792,518.955 261.458,518.955 C269.792,527.289 276.042,527.289 284.375,527.289" style="stroke:#181818;stroke-width:1.042;" fill="#F1F1F1"/><text x="234.338" y="601.78" fill="#000" font-size="25" textLength="100.073" font-family="Arial">Candidat</text></g><!--entity R--><g class="entity" data-qualified-name="R" id="ent0003" data-source-line="6"><ellipse cx="284.375" cy="1068.955" rx="33.333" ry="33.333" fill="#F1F1F1" style="stroke:#181818;stroke-width:1.042;"/><path d="M284.375,1110.622 C292.708,1110.622 298.958,1110.622 307.292,1102.289 C323.958,1102.289 340.625,1118.955 340.625,1135.622 L340.625,1143.955 C340.625,1152.289 332.292,1160.622 323.958,1160.622 L244.792,1160.622 C236.458,1160.622 228.125,1152.289 228.125,1143.955 L228.125,1135.622 C228.125,1118.955 244.792,1102.289 261.458,1102.289 C269.792,1110.622 276.042,1110.622 284.375,1110.622" style="stroke:#181818;stroke-width:1.042;" fill="#F1F1F1"/><text x="229.492" y="1185.114" fill="#000" font-size="25" textLength="109.766" font-family="Arial">Recruteur</text></g><!--entity A--><g class="entity" data-qualified-name="A" id="ent0004" data-source-line="7"><ellipse cx="284.751" cy="1666.872" rx="33.333" ry="33.333" fill="#F1F1F1" style="stroke:#181818;stroke-width:1.042;"/><path d="M284.751,1708.539 C293.085,1708.539 299.335,1708.539 307.668,1700.205 C324.335,1700.205 341.001,1716.872 341.001,1733.539 L341.001,1741.872 C341.001,1750.205 332.668,1758.539 324.335,1758.539 L245.168,1758.539 C236.835,1758.539 228.501,1750.205 228.501,1741.872 L228.501,1733.539 C228.501,1716.872 245.168,1700.205 261.835,1700.205 C270.168,1708.539 276.418,1708.539 284.751,1708.539" style="stroke:#181818;stroke-width:1.042;" fill="#F1F1F1"/><text x="204.167" y="1783.03" fill="#000" font-size="25" textLength="161.169" font-family="Arial">Administrateur</text></g><!--entity MS--><g class="entity" data-qualified-name="MS" id="ent0005" data-source-line="8"><rect x="1437.5" y="719.997" width="223.629" height="148.743" fill="#E8EEF6" style="stroke:#1F3A5F;stroke-width:1.042;" rx="5.208" ry="5.208"/><rect x="1619.462" y="730.414" width="31.25" height="20.833" fill="#E8EEF6" style="stroke:#1F3A5F;stroke-width:1.042;"/><rect x="1615.295" y="734.58" width="8.333" height="4.167" fill="#E8EEF6" style="stroke:#1F3A5F;stroke-width:1.042;"/><rect x="1615.295" y="742.914" width="8.333" height="4.167" fill="#E8EEF6" style="stroke:#1F3A5F;stroke-width:1.042;"/><text x="1478.455" y="785.114" fill="#1F3A5F" font-size="25" textLength="120.886" font-style="italic" font-family="Arial">«système»</text><text x="1468.75" y="813.861" fill="#1F3A5F" font-size="25" textLength="140.295" font-family="Arial">Microservice</text><text x="1468.75" y="842.609" fill="#1F3A5F" font-size="25" textLength="136.194" font-family="Arial">de matching</text></g><!--entity UC_Register--><g class="entity" data-qualified-name="Syst.me SmartRecruit.UC_Register" id="ent0013" data-source-line="15"><ellipse cx="671.093" cy="745.533" rx="78.385" ry="26.578" fill="#F4F7FB" style="stroke:#1F3A5F;stroke-width:1.042;"/><text x="620.086" y="752.615" fill="#000" font-size="25" textLength="102.014" font-family="Arial">S'inscrire</text></g><!--entity UC_Login--><g class="entity" data-qualified-name="Syst.me SmartRecruit.UC_Login" id="ent0014" data-source-line="16"><ellipse cx="670.619" cy="1937.454" rx="109.16" ry="26.832" fill="#F4F7FB" style="stroke:#1F3A5F;stroke-width:1.042;"/><text x="596.961" y="1944.536" fill="#000" font-size="25" textLength="147.314" font-family="Arial">Se connecter</text></g><!--entity UC_Dash--><g class="entity" data-qualified-name="Syst.me SmartRecruit.UC_Dash" id="ent0015" data-source-line="17"><ellipse cx="670.785" cy="2046.029" rx="188.494" ry="42.699" fill="#F4F7FB" style="stroke:#1F3A5F;stroke-width:1.042;"/><text x="503.311" y="2053.111" fill="#000" font-size="25" textLength="334.949" font-family="Arial">Consulter son tableau de bord</text></g><!--entity UC_Logout--><g class="entity" data-qualified-name="Syst.me SmartRecruit.UC_Logout" id="ent0016" data-source-line="18"><ellipse cx="670.57" cy="2156.195" rx="119.529" ry="28.906" fill="#F4F7FB" style="stroke:#1F3A5F;stroke-width:1.042;"/><text x="583.009" y="2163.277" fill="#000" font-size="25" textLength="175.122" font-family="Arial">Se déconnecter</text></g><!--entity UC_Profile--><g class="entity" data-qualified-name="Syst.me SmartRecruit.UC_Profile" id="ent0017" data-source-line="20"><ellipse cx="670.452" cy="314.296" rx="139.202" ry="32.84" fill="#F4F7FB" style="stroke:#1F3A5F;stroke-width:1.042;"/><text x="558.599" y="321.378" fill="#000" font-size="25" textLength="223.706" font-family="Arial">Compléter son profil</text></g><!--entity UC_Upload--><g class="entity" data-qualified-name="Syst.me SmartRecruit.UC_Upload" id="ent0018" data-source-line="21"><ellipse cx="670.683" cy="415.175" rx="122.767" ry="29.553" fill="#F4F7FB" style="stroke:#1F3A5F;stroke-width:1.042;"/><text x="578.972" y="422.258" fill="#000" font-size="25" textLength="183.423" font-family="Arial">Déposer son CV</text></g><!--entity UC_Reco--><g class="entity" data-qualified-name="Syst.me SmartRecruit.UC_Reco" id="ent0019" data-source-line="22"><ellipse cx="670.406" cy="529.703" rx="216.24" ry="48.248" fill="#F4F7FB" style="stroke:#1F3A5F;stroke-width:1.042;"/><text x="473.098" y="536.786" fill="#000" font-size="25" textLength="394.617" font-family="Arial">Consulter les offres recommandées</text></g><!--entity UC_Apply--><g class="entity" data-qualified-name="Syst.me SmartRecruit.UC_Apply" id="ent0020" data-source-line="23"><ellipse cx="671.265" cy="648.208" rx="136.89" ry="32.378" fill="#F4F7FB" style="stroke:#1F3A5F;stroke-width:1.042;"/><text x="562.17" y="655.291" fill="#000" font-size="25" textLength="218.188" font-family="Arial">Postuler à une offre</text></g><!--entity UC_Track--><g class="entity" data-qualified-name="Syst.me SmartRecruit.UC_Track" id="ent0021" data-source-line="24"><ellipse cx="671.324" cy="206.554" rx="157.782" ry="36.556" fill="#F4F7FB" style="stroke:#1F3A5F;stroke-width:1.042;"/><text x="537.919" y="213.636" fill="#000" font-size="25" textLength="266.809" font-family="Arial">Suivre ses candidatures</text></g><!--entity UC_Publish--><g class="entity" data-qualified-name="Syst.me SmartRecruit.UC_Publish" id="ent0022" data-source-line="26"><ellipse cx="670.693" cy="1227.677" rx="122.776" ry="29.555" fill="#F4F7FB" style="stroke:#1F3A5F;stroke-width:1.042;"/><text x="578.969" y="1234.76" fill="#000" font-size="25" textLength="183.447" font-family="Arial">Publier une offre</text></g><!--entity UC_Offers--><g class="entity" data-qualified-name="Syst.me SmartRecruit.UC_Offers" id="ent0023" data-source-line="27"><ellipse cx="670.327" cy="1339.688" rx="198.452" ry="44.69" fill="#F4F7FB" style="stroke:#1F3A5F;stroke-width:1.042;"/><text x="580.716" y="1327.137" fill="#000" font-size="25" textLength="179.224" font-family="Arial">Gérer ses offres</text><text x="518.179" y="1355.884" fill="#000" font-size="25" textLength="304.297" font-family="Arial">(modifier, changer le statut)</text></g><!--entity UC_Ranking--><g class="entity" data-qualified-name="Syst.me SmartRecruit.UC_Ranking" id="ent0024" data-source-line="28"><ellipse cx="670.512" cy="983.891" rx="195.512" ry="44.102" fill="#F4F7FB" style="stroke:#1F3A5F;stroke-width:1.042;"/><text x="495.426" y="990.973" fill="#000" font-size="25" textLength="350.171" font-family="Arial">Consulter les candidats classés</text></g><!--entity UC_RecoProfiles--><g class="entity" data-qualified-name="Syst.me SmartRecruit.UC_RecoProfiles" id="ent0025" data-source-line="29"><ellipse cx="670.831" cy="856.663" rx="199.998" ry="45" fill="#F4F7FB" style="stroke:#1F3A5F;stroke-width:1.042;"/><text x="490.906" y="863.746" fill="#000" font-size="25" textLength="359.851" font-family="Arial">Découvrir les profils compatibles</text></g><!--entity UC_Decide--><g class="entity" data-qualified-name="Syst.me SmartRecruit.UC_Decide" id="ent0026" data-source-line="30"><ellipse cx="671.283" cy="1112.587" rx="213.991" ry="47.798" fill="#F4F7FB" style="stroke:#1F3A5F;stroke-width:1.042;"/><text x="542.041" y="1101.514" fill="#000" font-size="25" textLength="258.484" font-family="Arial">Traiter une candidature</text><text x="505.231" y="1130.262" fill="#000" font-size="25" textLength="332.104" font-family="Arial">(présélection, entretien, refus)</text></g><!--entity UC_Users--><g class="entity" data-qualified-name="Syst.me SmartRecruit.UC_Users" id="ent0027" data-source-line="32"><ellipse cx="670.708" cy="1710.597" rx="141.542" ry="33.308" fill="#F4F7FB" style="stroke:#1F3A5F;stroke-width:1.042;"/><text x="556.084" y="1717.679" fill="#000" font-size="25" textLength="229.248" font-family="Arial">Gérer les utilisateurs</text></g><!--entity UC_AddStudent--><g class="entity" data-qualified-name="Syst.me SmartRecruit.UC_AddStudent" id="ent0028" data-source-line="33"><ellipse cx="670.964" cy="1593.773" rx="203.256" ry="45.651" fill="#F4F7FB" style="stroke:#1F3A5F;stroke-width:1.042;"/><text x="487.535" y="1600.855" fill="#000" font-size="25" textLength="366.858" font-family="Arial">Inscrire un candidat avec son CV</text></g><!--entity UC_Supervise--><g class="entity" data-qualified-name="Syst.me SmartRecruit.UC_Supervise" id="ent0029" data-source-line="34"><ellipse cx="670.598" cy="1827.596" rx="164.348" ry="46.141" fill="#F4F7FB" style="stroke:#1F3A5F;stroke-width:1.042;"/><text x="556.664" y="1821.396" fill="#000" font-size="25" textLength="227.869" font-family="Arial">Superviser les offres</text><text x="565.672" y="1850.144" fill="#000" font-size="25" textLength="209.851" font-family="Arial">et les candidatures</text></g><!--entity UC_Delete--><g class="entity" data-qualified-name="Syst.me SmartRecruit.UC_Delete" id="ent0030" data-source-line="35"><ellipse cx="670.998" cy="1466.687" rx="173.082" ry="43.565" fill="#F4F7FB" style="stroke:#1F3A5F;stroke-width:1.042;"/><text x="542.47" y="1464.353" fill="#000" font-size="25" textLength="257.056" font-family="Arial">Supprimer ou restaurer</text><text x="599.41" y="1493.1" fill="#000" font-size="25" textLength="143.176" font-family="Arial">des données</text></g><!--entity UC_Parse--><g class="entity" data-qualified-name="Syst.me SmartRecruit.UC_Parse" id="ent0031" data-source-line="37"><ellipse cx="1212.669" cy="743.989" rx="115.794" ry="28.159" fill="#F4F7FB" style="stroke:#1F3A5F;stroke-width:1.042;"/><text x="1129.997" y="751.071" fill="#000" font-size="25" textLength="165.344" font-family="Arial">Analyser le CV</text></g><!--entity UC_Match--><g class="entity" data-qualified-name="Syst.me SmartRecruit.UC_Match" id="ent0032" data-source-line="38"><ellipse cx="1212.87" cy="856.875" rx="135.786" ry="46.252" fill="#F4F7FB" style="stroke:#1F3A5F;stroke-width:1.042;"/><text x="1119.779" y="850.514" fill="#000" font-size="25" textLength="186.182" font-family="Arial">Calculer le score</text><text x="1126.017" y="879.261" fill="#000" font-size="25" textLength="173.706" font-family="Arial">de compatibilité</text></g><g class="link" data-entity-1="ent0001" data-entity-2="ent0002" id="lnk7" data-link-type="extension"><polygon points="84.721,1736.315,103.115,1701.327,78.443,1697.288,84.721,1736.315" fill="none" style="stroke:#1F3A5F;stroke-width:2.083;stroke-linejoin:miter;stroke-miterlimit:10;"/><path d="M90.779,1699.308 C128.388,1469.555 231.916,837.115 269.481,607.633" style="stroke:#1F3A5F;stroke-width:2.083;" fill="none"/></g><g class="link" data-entity-1="ent0001" data-entity-2="ent0003" id="lnk9" data-link-type="extension"><polygon points="95.4,1736.295,118.14,1703.962,94.192,1696.785,95.4,1736.295" fill="none" style="stroke:#1F3A5F;stroke-width:2.083;stroke-linejoin:miter;stroke-miterlimit:10;"/><path d="M106.166,1700.373 C146.649,1565.294 218.267,1326.331 258.757,1191.231" style="stroke:#1F3A5F;stroke-width:2.083;" fill="none"/></g><g class="link" data-entity-1="ent0001" data-entity-2="ent0004" id="lnk11" data-link-type="extension"><polygon points="127.16,1787.42,166.313,1781.985,155.221,1759.581,127.16,1787.42" fill="none" style="stroke:#1F3A5F;stroke-width:2.083;stroke-linejoin:miter;stroke-miterlimit:10;"/><path d="M160.767,1770.783 C184.145,1759.209 178.198,1762.154 203.641,1749.558" style="stroke:#1F3A5F;stroke-width:2.083;" fill="none"/></g><g class="link" data-entity-1="ent0001" data-entity-2="ent0014" id="lnk33" data-link-type="association"><path d="M127.352,1827.665 C196.087,1843.475 316.856,1870.783 420.833,1891.872 C466.733,1901.182 517.574,1910.716 561.207,1918.661" style="stroke:#1F3A5F;stroke-width:2.083;" fill="none"/></g><g class="link" data-entity-1="ent0001" data-entity-2="ent0015" id="lnk34" data-link-type="association"><path d="M127.305,1846.75 C150.769,1859.91 178.554,1875.013 204.167,1887.705 C298.512,1934.46 321.278,1949.25 420.833,1983.539 C441.188,1990.549 462.728,1997.147 484.275,2003.236" style="stroke:#1F3A5F;stroke-width:2.083;" fill="none"/></g><g class="link" data-entity-1="ent0001" data-entity-2="ent0016" id="lnk35" data-link-type="association"><path d="M127.578,1889.736 C149.761,1916.993 176.567,1946.985 204.167,1971.039 C290.146,2045.973 314.843,2066.425 420.833,2108.539 C461.777,2124.807 508.781,2135.687 550.778,2142.902" style="stroke:#1F3A5F;stroke-width:2.083;" fill="none"/></g><g class="link" data-entity-1="ent0002" data-entity-2="ent0013" id="lnk36" data-link-type="association"><path d="M331.519,607.987 C354.213,640.748 384.637,676.197 420.833,698.122 C472.577,729.465 540.576,740.94 592.269,744.86" style="stroke:#1F3A5F;stroke-width:2.083;" fill="none"/></g><g class="link" data-entity-1="ent0002" data-entity-2="ent0017" id="lnk37" data-link-type="association"><path d="M334.711,450.575 C357.249,420.028 386.68,387.506 420.833,366.872 C453.772,346.972 493.157,334.591 530.733,326.914" style="stroke:#1F3A5F;stroke-width:2.083;" fill="none"/></g><g class="link" data-entity-1="ent0002" data-entity-2="ent0018" id="lnk38" data-link-type="association"><path d="M341.893,497.657 C365.587,485.223 393.94,471.789 420.833,462.705 C461.328,449.028 506.938,438.818 547.893,431.419" style="stroke:#1F3A5F;stroke-width:2.083;" fill="none"/></g><g class="link" data-entity-1="ent0002" data-entity-2="ent0019" id="lnk39" data-link-type="association"><path d="M342.047,529.372 C372.488,529.372 412.381,529.372 453.787,529.372" style="stroke:#1F3A5F;stroke-width:2.083;" fill="none"/></g><g class="link" data-entity-1="ent0002" data-entity-2="ent0020" id="lnk40" data-link-type="association"><path d="M341.967,560.873 C365.672,573.272 394.014,586.738 420.833,596.039 C456.777,608.503 496.735,618.491 533.891,626.252" style="stroke:#1F3A5F;stroke-width:2.083;" fill="none"/></g><g class="link" data-entity-1="ent0002" data-entity-2="ent0021" id="lnk41" data-link-type="association"><path d="M306.144,451.037 C325.402,390.604 360.797,309.644 420.833,262.705 C447.432,241.91 480.272,228.519 513.249,219.966" style="stroke:#1F3A5F;stroke-width:2.083;" fill="none"/></g><g class="link" data-entity-1="ent0003" data-entity-2="ent0013" id="lnk42" data-link-type="association"><path d="M297.801,1033.979 C312.775,959.932 346.552,851.755 420.833,791.872 C468.881,753.138 539.209,743.168 592.699,742.027" style="stroke:#1F3A5F;stroke-width:2.083;" fill="none"/></g><g class="link" data-entity-1="ent0003" data-entity-2="ent0022" id="lnk43" data-link-type="association"><path d="M341.893,1144.421 C365.587,1156.854 393.94,1170.289 420.833,1179.372 C461.328,1193.05 506.938,1203.259 547.893,1210.658" style="stroke:#1F3A5F;stroke-width:2.083;" fill="none"/></g><g class="link" data-entity-1="ent0003" data-entity-2="ent0023" id="lnk44" data-link-type="association"><path d="M335.833,1191.54 C358.365,1221.717 387.491,1253.959 420.833,1275.205 C436.587,1285.244 453.845,1293.728 471.689,1300.895" style="stroke:#1F3A5F;stroke-width:2.083;" fill="none"/></g><g class="link" data-entity-1="ent0003" data-entity-2="ent0024" id="lnk45" data-link-type="association"><path d="M342.155,1081.732 C365.891,1069.418 394.205,1055.872 420.833,1046.039 C438.946,1039.35 458.062,1033.13 477.317,1027.412" style="stroke:#1F3A5F;stroke-width:2.083;" fill="none"/></g><g class="link" data-entity-1="ent0003" data-entity-2="ent0025" id="lnk46" data-link-type="association"><path d="M324.338,1034.35 C347.156,994.915 379.78,949.555 420.833,921.039 C436.176,910.382 453.157,901.483 470.827,894.053" style="stroke:#1F3A5F;stroke-width:2.083;" fill="none"/></g><g class="link" data-entity-1="ent0003" data-entity-2="ent0026" id="lnk47" data-link-type="association"><path d="M342.047,1112.705 C373.317,1112.705 414.559,1112.705 457.171,1112.705" style="stroke:#1F3A5F;stroke-width:2.083;" fill="none"/></g><g class="link" data-entity-1="ent0004" data-entity-2="ent0027" id="lnk48" data-link-type="association"><path d="M364.743,1710.622 C411.928,1710.622 473.407,1710.622 528.722,1710.622" style="stroke:#1F3A5F;stroke-width:2.083;" fill="none"/></g><g class="link" data-entity-1="ent0004" data-entity-2="ent0028" id="lnk49" data-link-type="association"><path d="M364.786,1678.522 C383.038,1671.529 402.5,1664.458 420.833,1658.539 C440.727,1652.116 461.672,1645.874 482.612,1639.964" style="stroke:#1F3A5F;stroke-width:2.083;" fill="none"/></g><g class="link" data-entity-1="ent0004" data-entity-2="ent0029" id="lnk50" data-link-type="association"><path d="M364.786,1742.722 C383.038,1749.716 402.5,1756.786 420.833,1762.705 C448.134,1771.52 477.415,1779.993 505.946,1787.736" style="stroke:#1F3A5F;stroke-width:2.083;" fill="none"/></g><g class="link" data-entity-1="ent0004" data-entity-2="ent0030" id="lnk51" data-link-type="association"><path d="M328.018,1631.814 C350.872,1595.602 382.422,1555.085 420.833,1529.372 C443.887,1513.94 470.461,1502.317 497.463,1493.565" style="stroke:#1F3A5F;stroke-width:2.083;" fill="none"/></g><g class="link" data-entity-1="ent0018" data-entity-2="ent0031" id="lnk52" data-link-type="dependency"><polygon points="1188.097,715.718,1182.641,695.938,1181.487,707.666,1169.759,706.513,1188.097,715.718" fill="#1F3A5F" style="stroke:#1F3A5F;stroke-width:2.083;stroke-linejoin:miter;stroke-miterlimit:10;"/><path d="M793.851,432.58 C825.202,439.652 858.332,449.389 887.5,462.705 C1020.73,523.533 1133.526,649.242 1181.487,707.666" style="stroke:#1F3A5F;stroke-width:2.083;stroke-dasharray:14.583,14.583;" fill="none"/><text x="929.167" y="477.822" fill="#000" font-size="25" textLength="107.031" font-family="Arial">«include»</text></g><g class="link" data-entity-1="ent0028" data-entity-2="ent0031" id="lnk53" data-link-type="dependency"><polygon points="1096.436,757.422,1076.632,752.054,1086.142,759.015,1079.181,768.525,1096.436,757.422" fill="#1F3A5F" style="stroke:#1F3A5F;stroke-width:2.083;stroke-linejoin:miter;stroke-miterlimit:10;"/><path d="M869.774,1547.598 C876.256,1542.159 882.216,1536.105 887.5,1529.372 C985.952,1403.913 823.075,935.361 925,812.705 C947.232,785.951 1016.607,769.775 1086.142,759.015" style="stroke:#1F3A5F;stroke-width:2.083;stroke-dasharray:14.583,14.583;" fill="none"/><text x="929.167" y="761.155" fill="#000" font-size="25" textLength="107.031" font-family="Arial">«include»</text></g><g class="link" data-entity-1="ent0019" data-entity-2="ent0032" id="lnk54" data-link-type="dependency"><polygon points="1102.125,810.248,1091.324,792.802,1093.517,804.381,1081.937,806.575,1102.125,810.248" fill="#1F3A5F" style="stroke:#1F3A5F;stroke-width:2.083;stroke-linejoin:miter;stroke-miterlimit:10;"/><path d="M846.708,577.344 C860.769,583.031 874.538,589.256 887.5,596.039 C963.483,635.798 985.277,648.418 1039.583,714.789 C1063.183,743.632 1050.731,763.437 1077.083,789.789 C1084.586,797.292 1084.498,798.235 1093.517,804.381" style="stroke:#1F3A5F;stroke-width:2.083;stroke-dasharray:14.583,14.583;" fill="none"/><text x="929.167" y="611.155" fill="#000" font-size="25" textLength="107.031" font-family="Arial">«include»</text></g><g class="link" data-entity-1="ent0024" data-entity-2="ent0032" id="lnk55" data-link-type="dependency"><polygon points="1076.215,891.192,1056.005,887.652,1066.109,893.717,1060.045,903.822,1076.215,891.192" fill="#1F3A5F" style="stroke:#1F3A5F;stroke-width:2.083;stroke-linejoin:miter;stroke-miterlimit:10;"/><path d="M867.245,940.41 C922.967,927.762 983.743,913.699 1039.583,900.205 C1051.487,897.329 1053.736,896.809 1066.109,893.717" style="stroke:#1F3A5F;stroke-width:2.083;stroke-dasharray:14.583,14.583;" fill="none"/><text x="929.167" y="892.405" fill="#000" font-size="25" textLength="107.031" font-family="Arial">«include»</text></g><g class="link" data-entity-1="ent0025" data-entity-2="ent0032" id="lnk56" data-link-type="dependency"><polygon points="1077.036,856.455,1058.286,848.122,1066.62,856.455,1058.286,864.789,1077.036,856.455" fill="#1F3A5F" style="stroke:#1F3A5F;stroke-width:2.083;stroke-linejoin:miter;stroke-miterlimit:10;"/><path d="M871.535,856.455 C940.017,856.455 1004.615,856.455 1066.62,856.455" style="stroke:#1F3A5F;stroke-width:2.083;stroke-dasharray:14.583,14.583;" fill="none"/><text x="929.167" y="848.655" fill="#000" font-size="25" textLength="107.031" font-family="Arial">«include»</text></g><g class="link" data-entity-1="ent0031" data-entity-2="ent0005" id="lnk57" data-link-type="association"><path d="M1328.939,761.163 C1364.046,766.445 1402.58,772.243 1437.355,777.476" style="stroke:#1F3A5F;stroke-width:2.083;" fill="none"/></g><g class="link" data-entity-1="ent0032" data-entity-2="ent0005" id="lnk58" data-link-type="association"><path d="M1348.781,831.214 C1377.961,825.726 1408.508,819.981 1436.634,814.69" style="stroke:#1F3A5F;stroke-width:2.083;" fill="none"/></g><?plantuml-src XLLTYjim47xNATIyR0kRFK1P0iQ1KcXeI9e-BIoAFCcAbIMZdq1e2pr43z37-Xo-IK_IiMp9TffsdwAHl_aqyyrFNWd5fI-0Fbftbd0dV2c94qu2NGfsDAmiWU9dpYmjRhmJKbZcX5RqAFMUIVhx-m-wBPbn6-362qS8uquREjlrMF1cHj5x5p_aJ1MYO2xSvl4sk2Vm9bvdHIcKiCuCH1dXkgoq0kNeR2MuqHRCIN1uK1XeoHn_4keOeAijlR-tP-kQNoKi5eJaTEwh-TS5HhCPZjbm90QuO-g8-S-slUCalndzGYZr5b2H5dCZbEL66EYIp1ytSCHumKnGAA1M2gd1HDm7VHHg3CgribuYWbgKrx6z1EPRxVVQ5D5hoUpJ1NFHrDV8jSTQJEZBIZPrvA-CFWWPyUjWmHY_REggLJQWyyyHkQkaPiNrk2LOgWy7WpyeeovBh7HJWnsauNhikTRMUOcEpK_g5NI-4PnLbJnFKlNYP81QPETz2tapa7yoZ3zFCbxxlHJ8_XTr-33LyLrJcpRNbC63UbtgGXoGu9Ro9so9a22r3fzrRoBLnyC1ZFst735IF4bcRLCFOZ3rZ7rw8JdN_eJT57ox4g4dLWvd3ljXecHViydZA89mVSeZaJ2Pok3RJIsnJN1wRobEZm4d08y63jwcZ9R0HG7aYZXjJ7wOwXJCpbv8yBuV2GmZHK7P2VX5BsL5iNMuV9IRrhbgvzbE6kf1WPi8EYvzyhYWgOmeaKLxJ17hXYwctH6uoN1Unesv10bkcdEcc3ntCOmYNZCpVILdaeSMRbk3QzCjeLWnrCerTNHUjQk9V2DaH-VpOGL4Aupsw5COuBotqrQ95t5YeztFvO37KOj6DqhHwWTbSyaSB-9qHBjlyOJl-tOpUYcrOhoCJPJ5w4ABH6jKztWrb31B55rDKcxqxcwHQa3VucRl_xjmiKz8Nm2s0KT8ACaLI9VZIwXHvl-3aXGBPhRQaWGBvXy0?></g></svg>